<?xml version="1.0" encoding="UTF-8"?>
<svg version="1.1" viewBox="0 0 75 75" xmlns="http://www.w3.org/2000/svg">
<title>call center rep</title>
<desc>Created with Sketch.</desc>
<g fill="none" fillRule="evenodd">
<g transform="translate(-305 -1210)" stroke="#5A5A5A" stroke-width="2">
<g transform="translate(200 1162)">
<g transform="translate(106 49)">
<path d="m8.3982 44.575v-15.92c0-15.826 12.726-28.655 28.425-28.655 15.699 0 28.425 12.83 28.425 28.655v15.92"/>
<path d="m65.248 29.717h4.6513c1.7126 0 3.1009 1.4462 3.1009 3.2301v9.6903c0 1.7839-1.3883 3.2301-3.1009 3.2301h-4.6513v-16.15z"/>
<path transform="translate(3.8761 37.792) rotate(180) translate(-3.8761 -37.792)" d="m0 29.717h4.6513c1.7126 0 3.1009 1.4462 3.1009 3.2301v9.6903c0 1.7839-1.3883 3.2301-3.1009 3.2301h-4.6513v-16.15z"/>
<path d="m44.46 18.735c0 4.233-1.6773 8.2926-4.6628 11.286-2.9855 2.9932-7.0348 4.6747-11.257 4.6747h-14.328v15.96c0 12.341 9.9785 22.345 22.288 22.345s22.288-10.004 22.288-22.345v-15.96c-8.1652-0.82263-14.369-7.7332-14.328-15.96z"/>
<path d="m41.345 60.08h12.748c6.1605 0 11.155-4.9491 11.155-11.054v-3.1583"/>
<circle cx="36.5" cy="60.403" r="4.8451"/>
</g>
</g>
</g>
</g>
</svg>
