<?xml version="1.0" encoding="UTF-8"?>
<svg version="1.1" viewBox="0 0 73 68" xmlns="http://www.w3.org/2000/svg">
<title>online chat icon</title>
<desc>Created with Sketch.</desc>
<g fill="none" fillRule="evenodd">
<g transform="translate(-684 -1210)" stroke="#5A5A5A" stroke-width="2">
<g transform="translate(200 1162)">
<g transform="translate(378)">
<g transform="translate(107 49)">
<path d="m27.396 35.491c0 3.4388-2.7877 6.2264-6.2264 6.2264s-6.2264-2.7877-6.2264-6.2264v-3.1132c0-3.4388 2.7877-6.2264 6.2264-6.2264s6.2264 2.7877 6.2264 6.2264v3.1132z"/>
<path d="m41.717 59.774h-12.453"/>
<path d="m26.002 59.774h-26.002v1.5566c0 2.5791 2.0544 4.6698 4.5886 4.6698h61.181c2.5342 0 4.5886-2.0907 4.5886-4.6698v-1.5566h-26.002"/>
<path d="m32.377 13.698h-24.688c-2.5275 0-4.5764 2.0629-4.5764 4.6075v41.468"/>
<path d="m67.245 59.774v-33.623"/>
<path d="m3.1132 19.925h29.264"/>
<path d="m70.358 3.0861c0-1.7044-1.3604-3.0861-3.0385-3.0861h-31.904c-1.6781 0-3.0385 1.3817-3.0385 3.0861v20.06c0 1.7044 1.3604 3.0861 3.0385 3.0861h4.5577v9.2584h1.5192l7.5962-9.2584h18.231c1.6781 0 3.0385-1.3817 3.0385-3.0861v-20.06z"/>
<path d="m49.189 9.3396h13.698"/>
<path d="m39.849 9.3396h6.2264"/>
<path d="m39.849 16.811h12.453"/>
<path d="m54.792 16.811h3.1132"/>
<path d="m9.3396 59.774v-7.783c0-2.5791 2.0385-4.6698 4.5531-4.6698h15.177c2.5146 0 4.5531 2.0907 4.5531 4.6698v7.783"/>
</g>
</g>
</g>
</g>
</g>
</svg>
